# Blender v3.0.1 OBJ File: 'BloodDrop.blend'
# www.blender.org
mtllib BloodDrop.mtl
o Plane
v -0.793213 0.000000 0.788723
v 1.178331 0.000000 0.320713
v -0.828930 0.000000 -0.761540
v 1.178331 0.000000 -0.262839
v -1.052498 0.000000 -0.500000
v -1.182251 0.000000 0.000000
v -1.052498 0.000000 0.500000
v -0.500000 0.000000 0.934239
v 0.000000 0.000000 0.904741
v 0.500000 0.000000 0.776805
v 1.357094 0.000000 0.103319
v 1.466101 0.000000 0.000000
v 1.357094 0.000000 -0.105144
v 0.500000 0.000000 -0.717297
v 0.000000 0.000000 -0.859029
v -0.500000 0.000000 -0.871297
v -0.500000 0.000000 0.500000
v -0.500000 0.000000 0.000000
v -0.500000 0.000000 -0.500000
v 0.000000 0.000000 0.500000
v 0.000000 0.000000 0.000000
v 0.000000 0.000000 -0.500000
v 0.500000 0.000000 0.500000
v 0.500000 0.000000 0.000000
v 0.500000 0.000000 -0.500000
vt 0.750000 0.750000
vt 1.000000 0.750000
vt 1.000000 1.000000
vt 0.750000 1.000000
vt 0.000000 0.750000
vt 0.250000 0.750000
vt 0.250000 1.000000
vt 0.000000 1.000000
vt 0.500000 0.750000
vt 0.500000 1.000000
vt 0.000000 0.000000
vt 0.250000 0.000000
vt 0.250000 0.250000
vt 0.000000 0.250000
vt 0.250000 0.500000
vt 0.000000 0.500000
vt 0.500000 0.000000
vt 0.500000 0.250000
vt 0.500000 0.500000
vt 0.750000 0.000000
vt 0.750000 0.250000
vt 0.750000 0.500000
vt 1.000000 0.000000
vt 1.000000 0.250000
vt 1.000000 0.500000
vn 0.0000 1.0000 0.0000
usemtl None
s 1
f 25/1/1 13/2/1 4/3/1 14/4/1
f 5/5/1 19/6/1 16/7/1 3/8/1
f 19/6/1 22/9/1 15/10/1 16/7/1
f 22/9/1 25/1/1 14/4/1 15/10/1
f 1/11/1 8/12/1 17/13/1 7/14/1
f 7/14/1 17/13/1 18/15/1 6/16/1
f 6/16/1 18/15/1 19/6/1 5/5/1
f 8/12/1 9/17/1 20/18/1 17/13/1
f 17/13/1 20/18/1 21/19/1 18/15/1
f 18/15/1 21/19/1 22/9/1 19/6/1
f 9/17/1 10/20/1 23/21/1 20/18/1
f 20/18/1 23/21/1 24/22/1 21/19/1
f 21/19/1 24/22/1 25/1/1 22/9/1
f 10/20/1 2/23/1 11/24/1 23/21/1
f 23/21/1 11/24/1 12/25/1 24/22/1
f 24/22/1 12/25/1 13/2/1 25/1/1
