# Blender v3.0.1 OBJ File: ''
# www.blender.org
mtllib Moon.mtl
o Circle
v 0.000000 0.000000 -1.000000
v 0.000000 0.195090 -0.980785
v 0.000000 0.382683 -0.923880
v 0.000000 0.555570 -0.831470
v 0.000000 0.707107 -0.707107
v 0.000000 0.831470 -0.555570
v 0.000000 0.923880 -0.382683
v 0.000000 0.980785 -0.195090
v 0.000000 1.000000 0.000000
v 0.000000 0.980785 0.195090
v 0.000000 0.923880 0.382683
v 0.000000 0.461940 -0.199287
v -0.000000 -0.461940 -0.199286
v 0.000000 0.000000 -0.330078
v -0.000000 -0.923880 0.382684
v -0.000000 -0.980785 0.195090
v -0.000000 -1.000000 -0.000000
v -0.000000 -0.980785 -0.195090
v -0.000000 -0.923879 -0.382684
v -0.000000 -0.831470 -0.555570
v -0.000000 -0.707107 -0.707107
v -0.000000 -0.555570 -0.831470
v -0.000000 -0.382683 -0.923880
v -0.000000 -0.195090 -0.980785
v 0.000000 0.692910 -0.002437
v -0.000000 -0.692910 -0.002437
vt 0.000000 0.000000
vt 0.000000 0.000000
vt 0.000000 0.000000
vt 0.000000 0.000000
vt 0.000000 0.000000
vt 0.000000 0.000000
vt 0.000000 0.000000
vt 0.000000 0.000000
vt 0.000000 0.000000
vt 0.000000 0.000000
vt 0.000000 0.000000
vt 0.000000 0.000000
vt 0.000000 0.000000
vt 0.000000 0.000000
vt 0.000000 0.000000
vt 0.000000 0.000000
vt 0.000000 0.000000
vt 0.000000 0.000000
vt 0.000000 0.000000
vt 0.000000 0.000000
vt 0.000000 0.000000
vt 0.000000 0.000000
vt 0.000000 0.000000
vt 0.000000 0.000000
vt 0.000000 0.000000
vt 0.000000 0.000000
vn 1.0000 0.0000 0.0000
usemtl None
s 1
f 2/1/1 3/2/1 4/3/1 5/4/1 6/5/1 7/6/1 8/7/1 9/8/1 10/9/1 11/10/1 25/11/1 12/12/1 14/13/1 13/14/1 26/15/1 15/16/1 16/17/1 17/18/1 18/19/1 19/20/1 20/21/1 21/22/1 22/23/1 23/24/1 24/25/1 1/26/1
